<svg xmlns="http://www.w3.org/2000/svg" width="240" height="324" fill="none"><path fill="#fff" fill-rule="evenodd" d="M51.501 284.881c12.937.362 25.157.762 38.068 0 20.661-1.278 81.295 1.026 94.623 0 1.005-.077 4.464 1.026 4.536 0 .586-7.145.966-79.435-.774-84.409-1.741-4.974-10.333-28.885-21.281-40.034-3.052-3.012-7.698-4.179-10.264-7.66-2.212-3.796-2.04-6.024-4.225-8.021-.948-.866-3.185-1.217-4.846-2.42-1.671-1.661-.089-5.318-.775-7.631-1.413-5.775-6.62-9.48-12.312-10.353-7.91-1.894-16.261-.104-20.05 6.112-1.41 2.314-.66 5.127-2.394 8.834.124 2.802-3.146 3.479-5.101 4.589l-3.881 3.924c-11.958 6.731-26.025 10.366-36.502 19.408-8.908 9.04-17.768 19.489-21.72 31.72-.819 3.333-1.086 6.777-1.425 10.183-.968 9.952-3.663 19.611-5.983 29.305-2.645 12.214-5.11 25.179-1.546 37.509 1.028 2.609 13.512 8.822 15.852 8.944Z" clip-rule="evenodd"/><path fill="#000" fill-rule="evenodd" d="M113.516 131.461c.103-.339.549-.244.583.078.336 3.187-.086 6.518-.492 9.684-.194 1.528-.307 3.117-.602 4.624-.038.161-.074.323-.108.484.097.173.385.368.522.501l.596.58 1.195 1.157 7.017 6.8 3.433 3.328c1.177 1.141 2.514 2.234 3.547 3.507.56.691.686 1.538.135 2.278-.273.365-.762.632-1.259.687.194.27.344.577.439.917.195.693-.507 1.545-1.252 1.255-.847-.325-1.547-.908-2.409-1.187a5.745 5.745 0 0 0-2.719-.186c-.414.069-.82.173-1.215.304 4.228 1.947 8.802 3.065 13.466 3.225.951.032 1.9.019 2.844-.044a26.58 26.58 0 0 0 4.718-.733 28.84 28.84 0 0 0 3.596-1.157 18.332 18.332 0 0 0 1.692-.765l.048-.028c.124-.078 2.42-1.38 2.46-1.576.04-.195.04-.264-.035-.434-.075-.17-.282-.288-.282-.288-.709-.303-1.444-.585-2.219-.59-1.783-.011-3.729 1.308-5.203 2.206-1.62.987-3.11 2.141-4.669 3.211a.2.2 0 0 1-.114.036c-.165 0-.317-.204-.212-.362 1.118-1.646 2.626-3.016 4.204-4.213l.636-.477c1.445-1.078 3.135-2.272 4.892-2.532 2.152-.317 4.4 1.025 6.321 1.811l3.401 1.393c.606.247 1.266.459 1.876.74l-1.425-4.461a1623.08 1623.08 0 0 1-2.126-6.696l-.137-.438c-.7-2.266-1.344-4.624-2.511-6.695-.279-.497-.598-.964-.912-1.435-.328-.488-.45-1.027-.862-1.463-.816-.864-1.984-1.372-3.1-1.703-.272-.081-.192-.44.064-.467 1.145-.121 2.236.146 3.271.629l.43.205c.978.463 1.932.894 2.658 1.725 1.656 1.898 2.516 4.288 3.306 6.646l.212.633c.295-.097 2.305.516 2.556.661 7.532 3.186 13.333 9.116 17.575 16.065 4.648 7.615 7.179 16.316 9.269 24.927a417.078 417.078 0 0 1 1.853 7.994c-2.639 1.016-5.444 1.548-7.915 2.979-.941.545-.091 2.007.853 1.46 2.314-1.34 4.95-1.836 7.427-2.777a345.959 345.959 0 0 1 3.539 18.648c3.074 19.165 5.015 38.643 4.893 58.07a2.78 2.78 0 0 1-.364 1.321.735.735 0 0 0 .307-.245c.779-1.224 2.733-.088 1.95 1.142l-.115.178c-.588.907-1.137 1.6-2.171 2.112-1.042.516-2.17.603-3.319.633-3.907.103-7.816.17-11.726.218-.536-4.185-.754-8.409-1.493-12.569-.19-1.069-1.819-.616-1.63.45.714 4.017.942 8.095 1.44 12.139-8.36.09-16.724.091-25.078.115-11.321.033-22.64.009-33.96.003l-4.852-.002c-13.077 0-26.155-.042-39.232-.128l-3.11-.022c-1.237-7.296-2.08-14.655-2.095-22.069-.002-1.088-1.693-1.09-1.69 0 .015 7.406.848 14.765 2.074 22.059-3.096-.013-6.191-.002-9.288.108l-1.576.056c-3.153.108-6.313.174-9.46-.077-3.495-.281-7.03-.924-10.162-2.57a14.326 14.326 0 0 1-3.716-2.809c1.08-.628 2.175-1.231 3.22-1.915.907-.594.061-2.058-.853-1.46-1.127.737-2.311 1.38-3.471 2.062a15.654 15.654 0 0 1-2.053-3.709c-.826-2.12-1.145-4.4-1.422-6.645-.327-2.644-.462-5.309-.462-7.972 0-5.601.589-11.184 1.411-16.718.786-5.3 1.825-10.559 2.924-15.8l.15-.715c1.084-5.152 2.117-10.32 3.359-15.437 1.148-4.731 2.476-9.441 4.058-14.059 1.408.871 2.882 1.633 4.268 2.54.913.598 1.76-.865.853-1.459-1.479-.969-3.056-1.773-4.549-2.719 1.77-4.945 3.846-9.775 6.335-14.401 4.986-9.263 11.704-17.551 20.309-23.667a59.83 59.83 0 0 1 13.997-7.387c5.06-1.86 10.303-2.878 15.665-3.297.153-.012.239.13.233.261l-.003.024.212.034c.078-.53.238-1.044.545-1.515.697-1.074 2.019-1.763 3.075-2.422l.251-.156c1.257-.779 2.583-1.547 4.045-1.82.05-.009.082.044.048.084-.964 1.106-2.196 1.951-3.326 2.886l-.26.217c-.936.77-2.242 1.645-2.277 2.933-.039 1.518.271 3.097.383 4.61.112 1.509.19 3.016.23 4.529a140.699 140.699 0 0 1-.509 16.245l2.121-1.421c3.301-2.21 6.613-4.415 9.993-6.484 2.045-1.253 4.344-2.325 6.794-2.276a8.812 8.812 0 0 1 2.206.323c-.8-.758-1.567-1.566-2.351-2.329-1.291-1.257-2.582-2.515-3.873-3.77l-3.722-3.627-3.723-3.627c-1.153-1.126-2.506-2.164-2.383-3.939.099-1.416.82-2.826 1.312-4.191.07-.197.133-.391.192-.584.993-3.301 1.557-6.723 2.565-10.011Zm48.104 141.645c-.77-.77-1.965.425-1.195 1.196l.407.405c.68.679 1.355 1.379 1.825 2.218l.07.127c.507.963 1.966.11 1.459-.853-.627-1.19-1.625-2.151-2.566-3.093Zm-32.986-.217a18.967 18.967 0 0 0-7.264 0c-1.067.204-.615 1.834.449 1.63a16.668 16.668 0 0 1 6.366 0c1.062.203 1.518-1.426.449-1.63Zm-33.1-17.043c-1.054-.268-1.504 1.363-.449 1.63l.52.13c1.766.437 3.449.762 5.284.357 1.048-.232.624-1.822-.408-1.639l-.042.008c-1.697.376-3.262-.07-4.904-.486Zm58.784-10.983c-.78-.759-1.976.436-1.195 1.196.976.949 2.125 1.67 3.518 1.708 1.072.03 1.087-1.61.048-1.688l-.048-.003c-.933-.026-1.677-.585-2.323-1.213Zm-99.47-4.516c.974-.486.119-1.945-.852-1.459l-5.841 2.921c-.974.487-.119 1.946.852 1.46l5.842-2.922Zm115.423.373c-1.088-.031-1.087 1.66 0 1.691 1.022.028 2.07.416 2.981.858.974.473 1.832-.984.853-1.46-1.191-.578-2.498-1.052-3.834-1.089Zm-54.578-8.164c.895-.608.05-2.074-.853-1.46-1.232.838-2.348 1.827-3.56 2.69l-.334.232c-.894.608-.05 2.074.853 1.46 1.344-.914 2.551-2.008 3.894-2.922Zm62.853-12.288c-1.088-.001-1.09 1.69 0 1.691l.206-.001c.898-.005 1.844-.03 2.679.329l.095.043c.979.461 1.838-.996.854-1.46-1.224-.576-2.504-.602-3.834-.602Zm-93.862-1.208.142-.053c1.016-.365.578-2-.45-1.63-1.548.556-2.752 1.607-4.095 2.519-.895.608-.05 2.074.852 1.461 1.158-.787 2.234-1.782 3.55-2.297Zm63.394-4.399.228-.122c.968-.498.114-1.957-.853-1.46-.767.395-1.453.92-2.206 1.339l-.228.122c-.967.498-.113 1.957.853 1.46.767-.395 1.454-.92 2.206-1.339Zm-25.711-16.377-.174-.168c-.778-.762-1.974.433-1.196 1.196 1.945 1.904 4.245 3.35 6.564 4.748l.422.253c.935.561 1.786-.9.853-1.46l-.619-.372c-2.062-1.244-4.1-2.529-5.85-4.197Zm-46.771-1.578c.655-.852-.77-1.685-1.436-.883l-.024.029c-.682.886-1.491 1.688-2.337 2.42l-.16.137c-.503.428-1.42 1.347-2.127 1.407-1.076.092-1.086 1.783 0 1.691 1.094-.093 2.036-.864 2.864-1.525a19.078 19.078 0 0 0 3.22-3.276Zm89.918-6.16c.785-.738-.375-1.912-1.167-1.22l-.028.025c-1.468 1.379-3.579 1.749-5.468 2.217-1.056.262-.609 1.892.449 1.631l.861-.213c1.931-.482 3.868-1.044 5.353-2.44Zm-33.473-10.665c-1.054-.268-1.504 1.363-.449 1.631 1.793.455 3.491 1.044 5.152 1.862.973.479 1.83-.979.853-1.46a28.23 28.23 0 0 0-5.556-2.033Zm17.266-35.642c-.025-.076.055-.163.133-.136 1.897.708.888 3.193.299 4.681l-.107.271c-.923 2.385-2.214 4.705-3.621 6.84a57.341 57.341 0 0 1-4.878 6.38 53.51 53.51 0 0 1-2.388 2.54l-.31.307c-.832.818-1.905 2.255-3.196 2.097-1.391-.167-2.166-1.653-1.152-2.781.717-.799 1.71-1.436 2.51-2.163a53.348 53.348 0 0 0 2.313-2.223 53.198 53.198 0 0 0 4.317-4.965c1.285-1.686 2.515-3.419 3.633-5.22l.222-.361c.852-1.402 2.817-3.462 2.225-5.267Zm-67.2 17.711c-.9-.616-1.747.848-.853 1.459 1.643 1.124 3.089 2.485 4.868 3.409.952.495 1.799-.923.886-1.441l-.033-.019c-1.778-.924-3.225-2.286-4.868-3.408Z" clip-rule="evenodd"/><path fill="#fff" fill-rule="evenodd" d="M119.872 55.516c32.022-1.575 46.472 20.98 47.407 31.054.649 6.993-3.481 15.053-3.481 21.302 0 3.19 3.903 10.037 2.086 14.686-4.045 10.348-12.61 21.832-23.524 21.832-10.914 0-25.118 3.019-37.178-14.255-1.131-1.621-15.443-10.833-16.834-19.586-3.463-21.804 8.675-53.909 31.524-55.033Z" clip-rule="evenodd"/><path fill="#000" fill-rule="evenodd" d="M118.363 41.479c1.145-1.31 3.078-1.835 4.796-1.733 2.495.148 4.665 1.688 7.147 1.802 2.603.12 5.115-.782 7.724-.363 1.599.258 3.184 1 4.208 2.25 3.55-1.016 7.403.33 9.664 3.27 2.789-.433 5.822 1.415 6.676 4.103 3.543.114 6.887 2.96 7.282 6.528 1.416.374 2.645 1.351 3.4 2.642.876 1.497 1.022 3.213.864 4.9 1.667.851 2.514 2.681 2.736 4.617 1.523 1.137 2.184 3.181 1.873 5.11 1.167.658 1.769 2.188 1.762 3.554-.006 1.274-.344 2.403.132 3.633.423 1.095.575 2.008.342 3.155l-.024.112c-.041.187-.075.367-.106.544.315.276.582.623.782 1.027.731 1.475.622 3.158.065 4.654.244.953.213 1.96-.148 2.875a5.203 5.203 0 0 1 .926 3.405 5.546 5.546 0 0 1-1.71 3.547c.256 1.894-.514 3.941-1.906 5.274a5.008 5.008 0 0 1-.593 3.397 4.679 4.679 0 0 1-1.723 1.735 5.571 5.571 0 0 1-.274 1.928 6.157 6.157 0 0 1-1.438 2.395c.389 2.485-1.098 5.243-3.716 5.94-.22.059-.43.086-.631.09a27.159 27.159 0 0 1-1.707 6.985c-2.235 5.7-6.3 10.684-11.601 13.793a23.947 23.947 0 0 1-8.573 3.029c-2.163.317-4.244.238-6.416.023-2.726-.273-5.464-.681-8.113-1.382l-.426-.114c-1.098-.294-2.256-.634-3.208-1.226-1.065-.664-1.618-1.687-1.863-2.892-.137-.67.288-1.391 1.022-1.405h.047c.16.003.32-.003.481-.013l.121-.008h.006c.009-.002.013-.002.021-.002.072-.011.142-.032.212-.043.807-.136 1.513-.001 2.271.251l.095.033c1.276.439 2.541.847 3.86 1.149 1.362.311 2.742.558 4.126.753l.137.017.042.006.022.002c.004 0 .008 0 .012.002l.408.051c.321.038.642.072.963.106a42.4 42.4 0 0 0 1.775.139c10.211.575 18.786-7.467 21.374-17.109.938-3.489.999-6.97.722-10.453a2.509 2.509 0 0 1-.139-.843c0-.161.009-.32.019-.48-.344-3.369-.942-6.74-1.316-10.122-.437-3.95-.68-7.923-.592-11.899.045-1.963.254-3.908.528-5.852l.1-.698a6.807 6.807 0 0 1-3.314-1.684c-1.994 1.152-4.575 1.254-6.543.038-2.206 1.383-5.287 1.509-7.508.156-1.343.959-3.034 1.372-4.694 1.008a5.45 5.45 0 0 1-2.126-1.007 6.07 6.07 0 0 1-1.371.087l-.094.053c-1.055.556-2.223.921-3.424.88a8.1 8.1 0 0 1-2.656-.537c-.906.547-1.898.92-2.96 1.055-1.55.195-3.223-.148-4.512-1.027-2.356 1.342-5.253 1.549-7.796.647a7.186 7.186 0 0 1-2.085 2.23c.151.541.199 1.119.147 1.674-.085.914-.314 1.733-.689 2.469.395.822.514 1.83.293 2.843-.315 1.445-1.155 2.701-2.243 3.68a6.912 6.912 0 0 1-3.416 5.667c-.104.06-.208.11-.311.154a1.513 1.513 0 0 1-.323.326c-1.308 1.209-3.378 1.113-5.017.43l-.095.005c-.586.014-.985-.214-1.222-.55a5.421 5.421 0 0 0-.714.083 9.89 9.89 0 0 0-2.613.881c-2.045 1.052-2.992 2.912-3.275 5.148-.308 2.439.393 4.925 2.28 6.576.917.803 2.09 1.306 3.28 1.517 1.317.235 2.724-.342 3.696.788.194.224.327.537.222.839-.33.943-.873 1.304-1.722 1.435 1.227 1.457 2.486 2.864 3.881 4.173 1.508 1.418 3.067 2.791 4.428 4.355 1.439 1.655 2.738 3.41 3.64 5.417.516 1.154.93 2.344 1.376 3.526l.079.206c.498 1.255 1.159 2.465.394 3.776-.304.515-.993 1.014-1.627.932-1.785-.229-2.383-1.435-2.932-3.008-.414-1.188-.731-2.409-1.177-3.587a12.867 12.867 0 0 0-.27-.648c-1.029.287-2.161.059-3.079-.528a7.451 7.451 0 0 1-3.119.634c-1.407-.025-2.691-.415-3.796-1.12-.088-.023-.176-.046-.264-.071-1.68.644-3.648.529-5.169-.515a5.459 5.459 0 0 1-2.041-2.581c-1.273-.025-2.532-.476-3.445-1.379a5.163 5.163 0 0 1-1.472-3.012c-1.096-.217-2.123-.747-2.928-1.639-.673-.746-1.082-1.695-1.22-2.681-1.334-.381-2.538-1.252-3.195-2.467a4.683 4.683 0 0 1-.4-3.475l-.078-.112c-1.375-.72-2.424-1.898-2.531-3.581-.03-.479.02-.958.15-1.412a4.236 4.236 0 0 1 .117-1.504c-1.849-1.798-2.519-4.687-1.515-7.076-1.806-1.944-2.284-5.02-.96-7.327-.908-1.1-1.375-2.5-1.296-3.997.097-1.868.952-3.5 1.977-5.011-.76-.841-1.166-2.014-1.136-3.147.042-1.642.914-3.056 2.007-4.227-.953-2.891.111-6.028 2.45-7.858-.473-.78-.648-1.746-.494-2.724.27-1.71 1.553-2.875 2.936-3.796-.289-.943-.213-1.96.248-2.934.614-1.3 1.774-2.124 2.985-2.821.313-2.883 3.532-5.345 6.232-3.857-.67-2.146 1.26-4.462 3.478-4.707 1.086-3.293 4.831-5.368 8.199-4.55 1.722-2.355 4.927-3.261 7.648-2.251 2.992-2.294 6.703-2.634 10.204-1.47Zm-21.31 64.654c2.102-.114 3.678 1.602 4.785 3.172 1.039 1.473-1.627 3.029-2.404 1.406-.28-.579-.596-1.192-1.02-1.699a4.066 4.066 0 0 0-.198.309l-.063.107c-.046.078-.095.158-.135.241.004.015-.059.209-.061.218-.173.526-.552.864-1.067 1.046-.665.232-1.295-.269-1.508-.856-.34-.939.45-1.757 1.271-2.128-.807-.132-1.601.143-2.184.765-.08.086-.216.017-.22-.091-.067-1.473 1.473-2.418 2.804-2.49Z" clip-rule="evenodd"/><path fill="#000" fill-rule="evenodd" d="M143.152 128.274a8.601 8.601 0 0 1-3.614-2.781 1.671 1.671 0 0 1-.338-1.297c.076-.467.352-.889.728-1.173.377-.284.849-.424 1.305-.353.397.062.791.279 1.104.73l.065.09a5.695 5.695 0 0 0 2.086 1.751 4.7 4.7 0 0 0 2.582.454c1.738-.196 2.935-1.136 4.208-2.413.158-.161.316-.327.474-.496a.746.746 0 0 1 .394-.303.864.864 0 0 1 .97.332c.097.143.153.32.135.524-.117 1.323-.808 2.503-1.79 3.43-1.091 1.03-2.537 1.742-3.898 1.992-1.499.275-3.027.078-4.411-.487Zm5.119-20.408c1.595.971 4.026 3.233 2.31 5.638-2.021 2.12-4.929-.311-6.362-1.411-1.329-.852-2.823 1.34-1.59 2.335 10.358 7.671 14.561-6.308 6.449-7.702-.894-.154-1.225.84-.807 1.14Zm-18.56-8.923c.176-2.189 3.508-2.686 3.84-.52.296 1.94-.053 3.723-.927 5.47-.834 1.668-2.932.89-3.091-.63-.213-2.037.068-2.958.178-4.32Zm25.365-.969c.465-.609 1.136-1.024 1.939-.79 2.511.735 1.771 4.301.889 6.037-.479.942-2.028 1.181-2.728.351-1.14-1.353-1.687-4.056-.236-5.39.039-.068.083-.138.136-.208Zm-22.487-8.608.397-.07c1.227-.212 2.752-.416 3.62.57.461.524.619 1.497 0 1.998-1.088.88-2.292.54-3.596.614a14.3 14.3 0 0 0-3.143.536c-2.272.65-4.123 1.835-6.063 3.137-.254.17-.514-.155-.393-.393 1.12-2.195 3.29-3.997 5.464-5.096 1.161-.587 2.43-1.073 3.714-1.296Zm20.198-.983.304.062c3.304.69 7.596 2.07 9.16 5.317.06.459-.003.557-.054.621l-.017.022c-.043.055-.076.13-.275.193a8.562 8.562 0 0 1-.168-.042c-.717-.188-1.284-.447-1.833-.716l-.596-.293c-.691-.34-1.388-.666-2.127-.907a25.038 25.038 0 0 0-4.844-1.07 1.988 1.988 0 0 1-.972-.37 1.464 1.464 0 0 1-.544-.827c-.116-.467-.082-.82.168-1.242.188-.316.458-.535.767-.661a1.798 1.798 0 0 1 1.031-.087Z" clip-rule="evenodd"/><path fill="#000" fill-rule="evenodd" d="M157 133.093c-.737-.242-1.461-.523-2.189-.793-3.72-1.87-8.214-2.209-12.115-.634-1.915.772-3.701 2.161-5.622 3.07-.457.171-.917.326-1.382.455a43.52 43.52 0 0 1-.854-.31c-2.038-.769-3.955-1.717-5.816-2.76a12.338 12.338 0 0 0-.626-.812c1.347-.191 2.666-.509 3.859-.837 3.663-1.004 7.115-2.64 10.766-3.688 3.399-.979 7.088-1.513 10.502-.298 1.62.577 3.046 1.587 4.622 2.268.816.35 1.794.695 2.747.746-.615 1.473-1.392 2.849-2.455 3.994a14.342 14.342 0 0 1-1.437-.401Zm7.927-11.538c-.326.271-1.672 1.146-2.109 1.667a19.608 19.608 0 0 1-.337-.132.935.935 0 0 0-.763-.333c-2.013-.937-3.805-2.26-5.405-3.92-1.136-1.177-2.3-2.409-3.819-3.092-1.79-.807-3.55-.435-5.43-.313-2.001.133-3.976-.435-5.974-.163-1.462.201-2.831.82-4.015 1.693-2.414 1.782-4.079 4.284-6.12 6.442-2.315 2.448-5.163 4.012-8.33 4.811a1.585 1.585 0 0 0-.119-.074c-2.334-2.114-4.442-4.5-6.308-7.043-1.821-2.483-6.623-13.661-7.783-14.642-.482-.408-1.01-.583-1.515-.568-.915.021-1.76.657-2.138 1.659-.642 1.703-.321 3.905-.27 5.687.063 2.181.207 4.36.435 6.531a93.4 93.4 0 0 0 .9 6.408c.188 1.074.397 2.145.627 3.213.072.336.163.636.273.915.112.526.232 1.05.361 1.57.841 3.405 2.168 6.814 4.701 9.327 2.636 2.619 6.22 4.358 9.547 5.913 3.169 1.482 6.49 2.799 9.898 3.83 2.96 1.342 6.129 2.403 9.31 2.961 3.503.615 7.186.653 10.568-.564a18.598 18.598 0 0 0 4.661-2.473c2.021-1.05 3.84-2.494 5.33-4.405 2.668-3.424 3.941-7.579 4.498-11.864.143-1.096.679-5.3.721-5.954l.408-6.34c.065-.997-1.159-1.282-1.803-.747Z" clip-rule="evenodd"/></svg>